<svg width="44" height="44" viewBox="0 0 44 44" fill="none" xmlns="http://www.w3.org/2000/svg">
<circle cx="22.003" cy="22.0011" r="1.85263" fill="white"/>
<path fill-rule="evenodd" clip-rule="evenodd" d="M22 44C34.1503 44 44 34.1503 44 22C44 9.84974 34.1503 0 22 0C9.84974 0 0 9.84974 0 22C0 34.1503 9.84974 44 22 44ZM22.0008 28.7159C25.7098 28.7159 28.7166 25.7091 28.7166 22.0001C28.7166 18.2911 25.7098 15.2843 22.0008 15.2843C18.2918 15.2843 15.285 18.2911 15.285 22.0001C15.285 25.7091 18.2918 28.7159 22.0008 28.7159ZM2.31836 21.1903C2.31836 20.8705 2.57756 20.6113 2.89731 20.6113C3.21705 20.6113 3.47625 20.8705 3.47625 21.1903V22.8113C3.47625 23.1311 3.21705 23.3903 2.89731 23.3903C2.57756 23.3903 2.31836 23.1311 2.31836 22.8113V21.1903ZM4.97934 18.7578C4.65959 18.7578 4.40039 19.017 4.40039 19.3368V24.6631C4.40039 24.9828 4.65959 25.242 4.97934 25.242C5.29908 25.242 5.55829 24.9828 5.55829 24.6631V19.3368C5.55829 19.017 5.29908 18.7578 4.97934 18.7578ZM6.48633 17.4852C6.48633 17.1655 6.74553 16.9062 7.06528 16.9062C7.38502 16.9062 7.64422 17.1655 7.64422 17.4852V26.5168C7.64422 26.8365 7.38502 27.0957 7.06528 27.0957C6.74553 27.0957 6.48633 26.8365 6.48633 26.5168V17.4852ZM9.14926 19.6846C8.82952 19.6846 8.57031 19.9438 8.57031 20.2635V23.7372C8.57031 24.0569 8.82952 24.3161 9.14926 24.3161C9.469 24.3161 9.72821 24.0569 9.72821 23.7372V20.2635C9.72821 19.9438 9.469 19.6846 9.14926 19.6846ZM10.6541 19.1054C10.6541 18.7856 10.9133 18.5264 11.233 18.5264C11.5528 18.5264 11.812 18.7856 11.812 19.1054V24.8948C11.812 25.2146 11.5528 25.4738 11.233 25.4738C10.9133 25.4738 10.6541 25.2146 10.6541 24.8948V19.1054ZM13.3172 20.6113C12.9975 20.6113 12.7383 20.8705 12.7383 21.1903V22.8113C12.7383 23.1311 12.9975 23.3903 13.3172 23.3903C13.637 23.3903 13.8962 23.1311 13.8962 22.8113V21.1903C13.8962 20.8705 13.637 20.6113 13.3172 20.6113ZM31.2656 22.8107C31.2656 23.1304 31.0064 23.3896 30.6867 23.3896C30.3669 23.3896 30.1077 23.1304 30.1077 22.8107V21.1896C30.1077 20.8699 30.3669 20.6107 30.6867 20.6107C31.0064 20.6107 31.2656 20.8699 31.2656 21.1896V22.8107ZM32.7687 25.4746C33.0885 25.4746 33.3477 25.2154 33.3477 24.8957V19.1062C33.3477 18.7864 33.0885 18.5272 32.7687 18.5272C32.449 18.5272 32.1898 18.7864 32.1898 19.1062V24.8957C32.1898 25.2154 32.449 25.4746 32.7687 25.4746ZM35.4336 23.7365C35.4336 24.0562 35.1744 24.3154 34.8546 24.3154C34.5349 24.3154 34.2757 24.0562 34.2757 23.7365V20.2628C34.2757 19.9431 34.5349 19.6839 34.8546 19.6839C35.1744 19.6839 35.4336 19.9431 35.4336 20.2628V23.7365ZM36.9386 27.0957C37.2584 27.0957 37.5176 26.8365 37.5176 26.5168V17.4852C37.5176 17.1654 37.2584 16.9062 36.9386 16.9062C36.6189 16.9062 36.3597 17.1654 36.3597 17.4852V26.5168C36.3597 26.8365 36.6189 27.0957 36.9386 27.0957ZM39.6015 24.6635C39.6015 24.9832 39.3423 25.2424 39.0225 25.2424C38.7028 25.2424 38.4436 24.9832 38.4436 24.6635V19.3371C38.4436 19.0174 38.7028 18.7582 39.0225 18.7582C39.3423 18.7582 39.6015 19.0174 39.6015 19.3371V24.6635ZM41.1066 23.3896C41.4263 23.3896 41.6855 23.1304 41.6855 22.8107V21.1896C41.6855 20.8699 41.4263 20.6107 41.1066 20.6107C40.7869 20.6107 40.5277 20.8699 40.5277 21.1896V22.8107C40.5277 23.1304 40.7869 23.3896 41.1066 23.3896Z" fill="white"/>
</svg>
