<svg width="20" height="12" viewBox="0 0 20 12" fill="none" xmlns="http://www.w3.org/2000/svg">
<path d="M2.08407 2.72611C1.51611 1.73635 1.23213 1.24147 1.44682 0.870736C1.66152 0.5 2.23209 0.5 3.37323 0.5H3.75693C5.42823 0.5 6.26388 0.5 6.95265 0.896696C7.64143 1.29339 8.06078 2.0162 8.89948 3.46181L9.10021 3.80781C9.67195 4.79328 9.95782 5.28602 10.3858 5.28602C10.8139 5.28602 11.0997 4.79328 11.6715 3.80781L11.8722 3.46181C12.7109 2.0162 13.1303 1.29339 13.819 0.896696C14.5078 0.5 15.3435 0.5 17.0148 0.5H17.4193C18.5659 0.5 19.1393 0.5 19.3537 0.872264C19.5681 1.24453 19.2804 1.74043 18.7049 2.73222L17.7007 4.4631C17.6559 4.54041 17.6335 4.57906 17.6115 4.61464C17.0854 5.46535 16.1667 5.99445 15.1669 6.0226C15.125 6.02378 15.0803 6.02378 14.991 6.02378C14.902 6.02378 14.8575 6.02378 14.8158 6.02495C13.8196 6.05289 12.9037 6.57815 12.3765 7.42385C12.3545 7.45923 12.332 7.49764 12.287 7.57447L11.592 8.76236C10.8695 9.99718 10.5082 10.6146 9.94609 10.9934C9.82723 11.0735 9.70273 11.1449 9.57356 11.2071C8.9627 11.5009 8.24737 11.5009 6.81671 11.5009H6.56814C5.41722 11.5009 4.84176 11.5009 4.62759 11.1275C4.41342 10.754 4.70403 10.2573 5.28526 9.26398L6.48606 7.2117C6.52131 7.15146 6.53893 7.12134 6.54979 7.09967C6.78781 6.62427 6.4642 6.05999 5.93368 6.02536C5.90949 6.02378 5.87459 6.02378 5.8048 6.02378C5.70124 6.02378 5.64946 6.02378 5.60104 6.0222C4.60569 5.98975 3.69271 5.46103 3.16917 4.61388C3.1437 4.57266 3.11793 4.52775 3.06638 4.43794L2.08407 2.72611Z" fill="#BFFF59"/>
</svg>
