<svg width="14" height="14" viewBox="0 0 14 14" fill="none" xmlns="http://www.w3.org/2000/svg">
<path d="M6.85086 0.347411L7.00065 0.333984C7.40975 0.333984 7.75 0.628776 7.82056 1.01752L7.83398 1.16732V6.16732H12.834C13.2431 6.16732 13.5833 6.46211 13.6539 6.85086L13.6673 7.00065C13.6673 7.40975 13.3725 7.75 12.9838 7.82056L12.834 7.83398H7.83398V12.834C7.83398 13.2431 7.53919 13.5833 7.15044 13.6539L7.00065 13.6673C6.59155 13.6673 6.2513 13.3725 6.18074 12.9838L6.16732 12.834V7.83398H1.16732C0.758218 7.83398 0.41797 7.53919 0.347411 7.15044L0.333984 7.00065C0.333984 6.59155 0.628776 6.2513 1.01752 6.18074L1.16732 6.16732H6.16732V1.16732C6.16732 0.758218 6.46211 0.41797 6.85086 0.347411Z" fill="white" fill-opacity="0.56"/>
</svg>
