<svg width="28" height="29" viewBox="0 0 28 29" fill="none" xmlns="http://www.w3.org/2000/svg">
<path d="M9.18484 16.2447C9.90825 16.2447 10.4947 15.6582 10.4947 14.9348C10.4947 14.2114 9.90825 13.625 9.18484 13.625C8.46144 13.625 7.875 14.2114 7.875 14.9348C7.875 15.6582 8.46144 16.2447 9.18484 16.2447ZM10.4947 19.3098C10.4947 20.0332 9.90825 20.6197 9.18484 20.6197C8.46144 20.6197 7.875 20.0332 7.875 19.3098C7.875 18.5864 8.46144 18 9.18484 18C9.90825 18 10.4947 18.5864 10.4947 19.3098ZM14.0008 16.2447C14.7242 16.2447 15.3106 15.6582 15.3106 14.9348C15.3106 14.2114 14.7242 13.625 14.0008 13.625C13.2774 13.625 12.6909 14.2114 12.6909 14.9348C12.6909 15.6582 13.2774 16.2447 14.0008 16.2447ZM15.3106 19.3098C15.3106 20.0332 14.7242 20.6197 14.0008 20.6197C13.2774 20.6197 12.6909 20.0332 12.6909 19.3098C12.6909 18.5864 13.2774 18 14.0008 18C14.7242 18 15.3106 18.5864 15.3106 19.3098ZM18.8098 16.2447C19.5332 16.2447 20.1197 15.6582 20.1197 14.9348C20.1197 14.2114 19.5332 13.625 18.8098 13.625C18.0864 13.625 17.5 14.2114 17.5 14.9348C17.5 15.6582 18.0864 16.2447 18.8098 16.2447ZM24.5 8.375C24.5 5.95875 22.5412 4 20.125 4H7.875C5.45875 4 3.5 5.95875 3.5 8.375V20.625C3.5 23.0412 5.45875 25 7.875 25H20.125C22.5412 25 24.5 23.0412 24.5 20.625V8.375ZM5.25 11H22.75V20.625C22.75 22.0747 21.5747 23.25 20.125 23.25H7.875C6.42525 23.25 5.25 22.0747 5.25 20.625V11ZM7.875 5.75H20.125C21.5747 5.75 22.75 6.92525 22.75 8.375V9.25H5.25V8.375C5.25 6.92525 6.42525 5.75 7.875 5.75Z" fill="white"/>
</svg>
