<svg width="28" height="29" viewBox="0 0 28 29" fill="none" xmlns="http://www.w3.org/2000/svg">
<path d="M14 4C19.799 4 24.5 8.70101 24.5 14.5C24.5 20.299 19.799 25 14 25C8.20101 25 3.5 20.299 3.5 14.5C3.5 8.70101 8.20101 4 14 4ZM14 5.75C9.16751 5.75 5.25 9.66751 5.25 14.5C5.25 19.3325 9.16751 23.25 14 23.25C18.8325 23.25 22.75 19.3325 22.75 14.5C22.75 9.66751 18.8325 5.75 14 5.75ZM13.1277 9.25C13.5572 9.25 13.9145 9.55953 13.9886 9.96772L14.0027 10.125V14.5H16.625C17.1082 14.5 17.5 14.8918 17.5 15.375C17.5 15.8046 17.1905 16.1618 16.7823 16.2359L16.625 16.25H13.1277C12.6981 16.25 12.3409 15.9405 12.2668 15.5323L12.2527 15.375V10.125C12.2527 9.64175 12.6444 9.25 13.1277 9.25Z" fill="white"/>
</svg>
