<svg width="24" height="25" viewBox="0 0 24 25" fill="none" xmlns="http://www.w3.org/2000/svg">
<path d="M15 6.5H19.5C19.9142 6.5 20.25 6.83579 20.25 7.25C20.25 7.66421 19.9142 8 19.5 8H18.6713L17.5419 18.1641C17.3309 20.0632 15.7257 21.5 13.8149 21.5H10.1851C8.27431 21.5 6.66907 20.0632 6.45805 18.1641L5.32871 8H4.5C4.08579 8 3.75 7.66421 3.75 7.25C3.75 6.83579 4.08579 6.5 4.5 6.5H9C9 4.84315 10.3431 3.5 12 3.5C13.6569 3.5 15 4.84315 15 6.5ZM12 5C11.1716 5 10.5 5.67157 10.5 6.5H13.5C13.5 5.67157 12.8284 5 12 5ZM9.75 11L9.75 17C9.75 17.4142 10.0858 17.75 10.5 17.75C10.9142 17.75 11.25 17.4142 11.25 17L11.25 11C11.25 10.5858 10.9142 10.25 10.5 10.25C10.0858 10.25 9.75 10.5858 9.75 11ZM13.5 10.25C13.0858 10.25 12.75 10.5858 12.75 11V17C12.75 17.4142 13.0858 17.75 13.5 17.75C13.9142 17.75 14.25 17.4142 14.25 17V11C14.25 10.5858 13.9142 10.25 13.5 10.25Z" fill="white" fill-opacity="0.56"/>
</svg>
