<svg width="28" height="29" viewBox="0 0 28 29" fill="none" xmlns="http://www.w3.org/2000/svg">
<path d="M7 4C5.067 4 3.5 5.567 3.5 7.5V17.9953C3.5 19.9282 5.067 21.4953 7 21.4953H10.5088V23.264L7.88547 23.264C7.40222 23.264 7.01047 23.6557 7.01047 24.139C7.01048 24.6222 7.40223 25.014 7.88548 25.014L20.1287 25.0139C20.612 25.0139 21.0037 24.6221 21.0037 24.1389C21.0037 23.6556 20.612 23.2639 20.1287 23.2639L17.5051 23.2639V21.4953H21C22.933 21.4953 24.5 19.9282 24.5 17.9953V7.5C24.5 5.567 22.933 4 21 4H7ZM15.7551 21.4953V23.2639L12.2588 23.2639V21.4953H15.7551ZM5.25 7.5C5.25 6.5335 6.0335 5.75 7 5.75H21C21.9665 5.75 22.75 6.5335 22.75 7.5V17.9953C22.75 18.9617 21.9665 19.7453 21 19.7453H7C6.0335 19.7453 5.25 18.9617 5.25 17.9953V7.5Z" fill="white"/>
</svg>
