<svg width="17" height="10" viewBox="0 0 17 10" fill="none" xmlns="http://www.w3.org/2000/svg">
<path d="M1.95591 6.09762C1.81008 6.53376 1.33844 6.76937 0.902068 6.62391C0.465448 6.47837 0.229482 6.00644 0.375021 5.56982C0.359846 5.62058 0.375641 5.56796 0.375641 5.56796C0.384847 5.54063 0.394687 5.51351 0.404747 5.48649C0.421901 5.4404 0.446557 5.37673 0.479367 5.29798C0.544928 5.14064 0.643414 4.92223 0.780166 4.66312C1.05293 4.14631 1.48245 3.45897 2.1138 2.77023C3.38931 1.37876 5.47668 0 8.66559 0C11.8545 0 13.9419 1.37876 15.2174 2.77023C15.8487 3.45897 16.2783 4.14631 16.551 4.66312C16.6878 4.92223 16.7863 5.14064 16.8518 5.29798C16.8846 5.37673 16.9093 5.4404 16.9264 5.48649C16.9316 5.50024 16.9488 5.58745 16.9653 5.67121C16.9803 5.74738 16.9948 5.8207 16.9991 5.83333C16.9991 5.83333 17.1383 6.38753 16.4291 6.62391C15.9934 6.76915 15.5225 6.53447 15.3759 6.0996L15.3753 6.09762L15.3746 6.09579L15.3645 6.06789C15.3544 6.04073 15.3375 5.99698 15.3134 5.93901C15.265 5.82292 15.1877 5.6507 15.077 5.44105C14.855 5.02037 14.5033 4.45771 13.9888 3.89644C12.9726 2.78791 11.31 1.66667 8.66559 1.66667C6.02117 1.66667 4.35854 2.78791 3.34239 3.89644C2.82789 4.45771 2.47617 5.02037 2.25414 5.44105C2.1435 5.6507 2.0662 5.82292 2.01783 5.93901C1.99367 5.99698 1.97683 6.04073 1.96672 6.06789L1.95591 6.09762ZM8.66577 3.33333C6.82482 3.33333 5.33244 4.82572 5.33244 6.66667C5.33244 8.50762 6.82482 10 8.66577 10C10.5067 10 11.9991 8.50762 11.9991 6.66667C11.9991 4.82572 10.5067 3.33333 8.66577 3.33333ZM6.9991 6.66667C6.9991 5.74619 7.7453 5 8.66577 5C9.58625 5 10.3324 5.74619 10.3324 6.66667C10.3324 7.58714 9.58625 8.33333 8.66577 8.33333C7.7453 8.33333 6.9991 7.58714 6.9991 6.66667Z" fill="white" fill-opacity="0.56"/>
</svg>
