<svg width="20" height="20" viewBox="0 0 20 20" fill="none" xmlns="http://www.w3.org/2000/svg">
<path d="M4.3763 3.33398H15.6263C17.0705 3.33398 18.2507 4.46436 18.3303 5.88863L18.3346 6.04232V13.959C18.3346 15.4032 17.2043 16.5834 15.78 16.663L15.6263 16.6673H4.3763C2.93211 16.6673 1.75193 15.5369 1.67226 14.1127L1.66797 13.959V6.04232C1.66797 4.59812 2.79835 3.41795 4.22262 3.33827L4.3763 3.33398H15.6263H4.3763ZM17.0846 7.81148L10.2924 11.3871C10.1362 11.4693 9.95391 11.481 9.79027 11.4223L9.71021 11.3871L2.91797 7.81232V13.959C2.91797 14.7241 3.50723 15.3516 4.2567 15.4125L4.3763 15.4173H15.6263C16.3914 15.4173 17.019 14.8281 17.0798 14.0786L17.0846 13.959V7.81148ZM15.6263 4.58398H4.3763C3.61116 4.58398 2.98364 5.17324 2.9228 5.92271L2.91797 6.04232V6.39982L10.0013 10.1277L17.0846 6.39898V6.04232C17.0846 5.27717 16.4954 4.64966 15.7459 4.58882L15.6263 4.58398Z" fill="white" fill-opacity="0.84"/>
</svg>
