<svg width="57" height="56" viewBox="0 0 57 56" fill="none" xmlns="http://www.w3.org/2000/svg">
<rect x="0.666016" width="56" height="56" rx="28" fill="white" fill-opacity="0.04"/>
<rect x="2.66602" y="2" width="52" height="52" rx="26" stroke="white" stroke-opacity="0.04" stroke-width="4"/>
<path d="M23.2664 28.0004C23.2664 27.669 22.9978 27.4004 22.6664 27.4004C22.335 27.4004 22.0664 27.669 22.0664 28.0004C22.0664 31.4432 24.7025 34.2703 28.0664 34.5735V37.0004C28.0664 37.3317 28.335 37.6004 28.6664 37.6004C28.9978 37.6004 29.2664 37.3317 29.2664 37.0004V34.5735C32.6303 34.2703 35.2664 31.4432 35.2664 28.0004C35.2664 27.669 34.9978 27.4004 34.6664 27.4004C34.335 27.4004 34.0664 27.669 34.0664 28.0004C34.0664 30.9827 31.6487 33.4004 28.6664 33.4004C25.6841 33.4004 23.2664 30.9827 23.2664 28.0004ZM32.2664 28.0013C32.2659 29.9891 30.6543 31.6004 28.6664 31.6004C26.6782 31.6004 25.0664 29.9886 25.0664 28.0004V22.0004C25.0664 20.0122 26.6782 18.4004 28.6664 18.4004C30.6546 18.4004 32.2664 20.0122 32.2664 22.0004V28.0013Z" fill="white"/>
</svg>
