<svg width="44" height="44" viewBox="0 0 44 44" fill="none" xmlns="http://www.w3.org/2000/svg">
<path d="M0 22C0 12.6177 0 7.92655 2.47976 4.69486C3.11817 3.86288 3.86288 3.11817 4.69486 2.47976C7.92655 0 12.6177 0 22 0C31.3823 0 36.0735 0 39.3051 2.47976C40.1371 3.11817 40.8818 3.86288 41.5202 4.69486C44 7.92655 44 12.6177 44 22C44 31.3823 44 36.0735 41.5202 39.3051C40.8818 40.1371 40.1371 40.8818 39.3051 41.5202C36.0735 44 31.3823 44 22 44C12.6177 44 7.92655 44 4.69486 41.5202C3.86288 40.8818 3.11817 40.1371 2.47976 39.3051C0 36.0735 0 31.3823 0 22Z" fill="white" fill-opacity="0.04"/>
<path d="M14.1772 14.4314L14.2929 14.2929C14.64 13.9458 15.1789 13.9072 15.5686 14.1772L15.7071 14.2929L22 20.586L28.2929 14.2929C28.6834 13.9024 29.3166 13.9024 29.7071 14.2929C30.0976 14.6834 30.0976 15.3166 29.7071 15.7071L23.414 22L29.7071 28.2929C30.0542 28.64 30.0928 29.1789 29.8228 29.5686L29.7071 29.7071C29.36 30.0542 28.8211 30.0928 28.4314 29.8228L28.2929 29.7071L22 23.414L15.7071 29.7071C15.3166 30.0976 14.6834 30.0976 14.2929 29.7071C13.9024 29.3166 13.9024 28.6834 14.2929 28.2929L20.586 22L14.2929 15.7071C13.9458 15.36 13.9072 14.8211 14.1772 14.4314L14.2929 14.2929L14.1772 14.4314Z" fill="white"/>
</svg>
