<svg width="20" height="20" viewBox="0 0 20 20" fill="none" xmlns="http://www.w3.org/2000/svg">
<path d="M14.7948 11.666C15.8298 11.666 16.6689 12.5051 16.6689 13.5401V14.0196C16.6689 14.7648 16.4025 15.4855 15.9179 16.0517C14.6101 17.5796 12.6208 18.3336 9.99965 18.3336C7.3781 18.3336 5.38976 17.5793 4.0845 16.0508C3.60137 15.485 3.33594 14.7654 3.33594 14.0215V13.5401C3.33594 12.5051 4.17498 11.666 5.21 11.666H14.7948ZM14.7948 12.916H5.21C4.86534 12.916 4.58594 13.1954 4.58594 13.5401V14.0215C4.58594 14.4679 4.7452 14.8996 5.03508 15.2391C6.0795 16.4621 7.71773 17.0836 9.99965 17.0836C12.2816 17.0836 13.9212 16.4621 14.9683 15.2388C15.2591 14.8991 15.4189 14.4667 15.4189 14.0196V13.5401C15.4189 13.1954 15.1395 12.916 14.7948 12.916ZM9.99965 1.66992C12.3008 1.66992 14.1663 3.5354 14.1663 5.83659C14.1663 8.13778 12.3008 10.0033 9.99965 10.0033C7.69847 10.0033 5.83299 8.13778 5.83299 5.83659C5.83299 3.5354 7.69847 1.66992 9.99965 1.66992ZM9.99965 2.91992C8.38882 2.91992 7.08299 4.22576 7.08299 5.83659C7.08299 7.44742 8.38882 8.75326 9.99965 8.75326C11.6105 8.75326 12.9163 7.44742 12.9163 5.83659C12.9163 4.22576 11.6105 2.91992 9.99965 2.91992Z" fill="white" fill-opacity="0.84"/>
</svg>
