<svg width="20" height="20" viewBox="0 0 20 20" fill="none" xmlns="http://www.w3.org/2000/svg">
<path d="M4.64125 6.57265C4.40304 5.00228 5.5113 3.58834 7.20567 3.07015C7.82966 2.87931 8.49443 3.20683 8.72335 3.81788L9.26656 5.26785C9.44535 5.74508 9.31652 6.28307 8.94096 6.62755L7.32532 8.10951C7.16353 8.25791 7.09169 8.48137 7.1357 8.69645L7.15006 8.76174C7.15899 8.80073 7.17213 8.8559 7.18985 8.92489C7.22526 9.06273 7.27918 9.25656 7.35466 9.48735C7.50482 9.94647 7.74426 10.564 8.10051 11.181C8.45676 11.798 8.87181 12.3141 9.19433 12.6738C9.35646 12.8545 9.49737 12.9981 9.59903 13.0977C9.64992 13.1476 9.69113 13.1865 9.72043 13.2138L9.7706 13.2595C9.93486 13.4052 10.1635 13.454 10.3729 13.3881L12.4641 12.7299C12.9503 12.5769 13.4806 12.7343 13.8045 13.1277L14.7938 14.3295C15.2056 14.8297 15.1572 15.564 14.6833 16.0058C13.3869 17.2145 11.6044 17.462 10.3637 16.4651C9.16759 15.504 7.75992 14.0757 6.58397 12.0542C5.40528 10.028 4.87163 8.09141 4.64125 6.57265ZM8.44505 8.77864L9.78591 7.54872C10.537 6.85976 10.7947 5.78378 10.4371 4.82932L9.89391 3.37935C9.43329 2.14983 8.09566 1.49081 6.84009 1.8748C4.73681 2.51805 3.048 4.40411 3.40538 6.76011C3.65497 8.40546 4.23224 10.4974 5.50349 12.6828C6.76958 14.8592 8.2871 16.4 9.58075 17.4395C11.4401 18.9335 13.9234 18.4233 15.5357 16.9201C16.4927 16.0279 16.5904 14.5452 15.7589 13.5351L14.7695 12.3333C14.1217 11.5464 13.0611 11.2315 12.0889 11.5375L10.3533 12.0838C10.2865 12.0152 10.2092 11.9332 10.1249 11.8391C9.83973 11.5212 9.48303 11.0756 9.18304 10.556C8.88305 10.0364 8.67549 9.50469 8.54273 9.09877C8.50347 8.97872 8.47109 8.87074 8.44505 8.77864Z" fill="white"/>
</svg>
