<svg width="37" height="36" viewBox="0 0 37 36" fill="none" xmlns="http://www.w3.org/2000/svg">
<rect x="4.66602" y="4" width="28" height="28" rx="14" fill="white" fill-opacity="0.26"/>
<rect x="3.16602" y="2.5" width="31" height="31" rx="15.5" stroke="white" stroke-opacity="0.1" stroke-width="3"/>
<path d="M18.5455 12.6768L18.6654 12.666C18.9926 12.666 19.2648 12.9018 19.3213 13.2128L19.332 13.3327V17.3327H23.332C23.6593 17.3327 23.9315 17.5685 23.988 17.8795L23.9987 17.9993C23.9987 18.3266 23.7629 18.5988 23.4519 18.6553L23.332 18.666H19.332V22.666C19.332 22.9933 19.0962 23.2655 18.7852 23.3219L18.6654 23.3327C18.3381 23.3327 18.0659 23.0968 18.0094 22.7858L17.9987 22.666V18.666H13.9987C13.6714 18.666 13.3992 18.4302 13.3428 18.1192L13.332 17.9993C13.332 17.6721 13.5679 17.3999 13.8789 17.3434L13.9987 17.3327H17.9987V13.3327C17.9987 13.0054 18.2345 12.7332 18.5455 12.6768Z" fill="white"/>
</svg>
