<svg width="57" height="56" viewBox="0 0 57 56" fill="none" xmlns="http://www.w3.org/2000/svg">
<rect x="0.666016" width="56" height="56" rx="28" fill="white" fill-opacity="0.04"/>
<rect x="2.66602" y="2" width="52" height="52" rx="26" stroke="white" stroke-opacity="0.04" stroke-width="4"/>
<path d="M35.6895 17.375C35.4552 17.1406 35.0753 17.1406 34.841 17.375C34.6067 17.6093 34.6067 17.9892 34.841 18.2235C36.203 19.5855 36.9152 21.6683 36.9152 23.7992C36.9152 25.9301 36.203 28.0129 34.841 29.375C34.6067 29.6093 34.6067 29.9892 34.841 30.2235C35.0753 30.4578 35.4552 30.4578 35.6895 30.2235C37.3275 28.5855 38.1152 26.1683 38.1152 23.7992C38.1152 21.4301 37.3275 19.0129 35.6895 17.375ZM33.2895 19.775C33.0552 19.5406 32.6753 19.5406 32.441 19.775C32.2067 20.0093 32.2067 20.3892 32.441 20.6235C33.203 21.3855 33.6152 22.5683 33.6152 23.7992C33.6152 25.0301 33.203 26.2129 32.441 26.975C32.2067 27.2093 32.2067 27.5892 32.441 27.8235C32.6753 28.0578 33.0552 28.0578 33.2895 27.8235C34.3275 26.7855 34.8152 25.2683 34.8152 23.7992C34.8152 22.3301 34.3275 20.8129 33.2895 19.775ZM21.4652 24.3992C21.4652 21.7483 23.6143 19.5992 26.2652 19.5992C28.9162 19.5992 31.0652 21.7483 31.0652 24.3992C31.0652 27.0502 28.9162 29.1992 26.2652 29.1992C23.6143 29.1992 21.4652 27.0502 21.4652 24.3992ZM17.8652 32.7992C17.8652 31.4635 18.949 30.3992 20.2757 30.3992L32.2653 30.3992C33.5906 30.3992 34.6652 31.4739 34.6652 32.7992C34.6652 34.8287 33.6659 36.3588 32.1032 37.3551C30.5649 38.336 28.4909 38.7992 26.2652 38.7992C24.0395 38.7992 21.9656 38.336 20.4272 37.3551C18.8646 36.3588 17.8652 34.8287 17.8652 32.7992Z" fill="white"/>
</svg>
