<svg width="37" height="36" viewBox="0 0 37 36" fill="none" xmlns="http://www.w3.org/2000/svg">
<path d="M4.66602 18C4.66602 10.268 10.934 4 18.666 4V4C26.398 4 32.666 10.268 32.666 18V18C32.666 25.732 26.398 32 18.666 32V32C10.934 32 4.66602 25.732 4.66602 18V18Z" fill="#F5C35C"/>
<path d="M3.16602 18C3.16602 26.5604 10.1056 33.5 18.666 33.5C27.2264 33.5 34.166 26.5604 34.166 18C34.166 9.43959 27.2264 2.5 18.666 2.5C10.1056 2.5 3.16602 9.43959 3.16602 18Z" stroke="white" stroke-opacity="0.1" stroke-width="3"/>
<path d="M13.6074 15.918V15.6582C13.6074 14.3389 14.4004 13.4502 15.6445 13.4502C16.8887 13.4502 17.6543 14.3252 17.6543 15.6582V15.918C17.6543 17.21 16.8613 18.1465 15.6104 18.1465C14.3799 18.1465 13.6074 17.251 13.6074 15.918ZM14.8721 22.1934L18.2695 17.8662L21.3867 13.7852C21.6602 13.4229 21.9951 13.416 22.2549 13.5664C22.4531 13.6484 22.5898 13.8262 22.5967 14.0381C22.6104 14.2021 22.542 14.3867 22.3916 14.5713L19.2812 18.5498L15.877 22.9863C15.5898 23.3623 15.248 23.3418 15.002 23.1982C14.8311 23.123 14.6875 22.959 14.6738 22.7607C14.6533 22.5967 14.708 22.3984 14.8721 22.1934ZM15.0225 15.7129V15.8701C15.0225 16.5742 15.2549 16.9639 15.6309 16.9639C16 16.9639 16.2324 16.5742 16.2324 15.8701V15.7129C16.2324 15.0088 16 14.6328 15.6309 14.6328C15.248 14.6328 15.0225 15.002 15.0225 15.7129ZM19.6777 20.9014V20.6416C19.6777 19.3223 20.4707 18.4336 21.7217 18.4336C22.9658 18.4336 23.7246 19.3086 23.7246 20.6416V20.9014C23.7246 22.1934 22.9385 23.1299 21.6875 23.1299C20.4502 23.1299 19.6777 22.2344 19.6777 20.9014ZM21.0928 20.6963V20.8535C21.0928 21.5576 21.332 21.9473 21.7012 21.9473C22.0703 21.9473 22.3027 21.5576 22.3027 20.8535V20.6963C22.3027 19.9922 22.0771 19.6162 21.7012 19.6162C21.3252 19.6162 21.0928 19.9854 21.0928 20.6963Z" fill="#121214"/>
</svg>
