<svg width="57" height="56" viewBox="0 0 57 56" fill="none" xmlns="http://www.w3.org/2000/svg">
<rect x="0.666016" width="56" height="56" rx="28" fill="white" fill-opacity="0.04"/>
<rect x="2.66602" y="2" width="52" height="52" rx="26" stroke="white" stroke-opacity="0.04" stroke-width="4"/>
<path d="M30.166 19.75C30.166 19.4485 29.9854 19.1762 29.7075 19.059C29.4297 18.9418 29.1087 19.0024 28.8927 19.2128L24.5026 23.4891H21.916C20.6734 23.4891 19.666 24.4965 19.666 25.7391V30.2226C19.666 31.4652 20.6734 32.4726 21.916 32.4726H24.5007L28.8904 36.785C29.1059 36.9968 29.4274 37.0585 29.7061 36.9416C29.9847 36.8248 30.166 36.5522 30.166 36.25V19.75ZM31.8329 23.7831C32.0908 23.459 32.5626 23.4052 32.8867 23.6631L32.888 23.6641L32.8894 23.6652L32.8926 23.6678L32.9007 23.6744L32.9231 23.6932C32.9408 23.7083 32.9638 23.7284 32.9912 23.7536C33.0462 23.8039 33.1194 23.8749 33.2046 23.9668C33.3749 24.1504 33.5945 24.4194 33.812 24.7771C34.2493 25.4964 34.6724 26.5666 34.6724 27.9978C34.6724 29.429 34.2493 30.5003 33.8124 31.2206C33.595 31.5789 33.3756 31.8485 33.2055 32.0326C33.1203 32.1248 33.0472 32.1959 32.9923 32.2464C32.9628 32.2735 32.9326 32.2999 32.902 32.3257L32.8893 32.336L32.8881 32.337C32.8881 32.337 32.2185 32.7006 31.8339 32.2194C31.5767 31.8974 31.6275 31.4286 31.9467 31.1692L31.949 31.1672L31.9479 31.1682L31.9504 31.1662L31.949 31.1672C31.9534 31.1635 31.9628 31.1553 31.9764 31.1428C32.0038 31.1176 32.048 31.075 32.1037 31.0147C32.2154 30.8938 32.3715 30.7037 32.5299 30.4427C32.8442 29.9245 33.1724 29.1191 33.1724 27.9978C33.1724 26.8766 32.8442 26.0728 32.5302 25.5564C32.3721 25.2962 32.2161 25.1068 32.1046 24.9866C32.049 24.9266 32.0048 24.8842 31.9775 24.8592C31.9639 24.8467 31.9546 24.8386 31.9503 24.8349L31.9518 24.8361C31.6281 24.5781 31.5752 24.1071 31.8329 23.7831ZM34.3856 20.6633C34.0615 20.4053 33.5897 20.4588 33.3317 20.7829C33.0738 21.1068 33.128 21.579 33.4516 21.8371L33.4682 21.8509C33.4844 21.8646 33.5107 21.8873 33.5457 21.9187C33.6157 21.9817 33.72 22.0798 33.8473 22.212C34.1024 22.4769 34.4471 22.8762 34.7928 23.4026C35.4834 24.4546 36.171 26.0027 36.171 28.0061C36.171 30.0093 35.4835 31.5541 34.7933 32.6027C34.4478 33.1275 34.1032 33.5252 33.8483 33.7889C33.7211 33.9205 33.6169 34.0181 33.5469 34.0807C33.512 34.112 33.4857 34.1345 33.4695 34.1482L33.4522 34.1625L33.4508 34.1636C33.1278 34.4212 33.0738 34.8917 33.3305 35.2157C33.5877 35.5404 34.0606 35.5942 34.3853 35.337L34.4348 35.2964C34.4625 35.273 34.5008 35.2401 34.5479 35.1979C34.6422 35.1134 34.7726 34.991 34.9268 34.8314C35.2349 34.5127 35.641 34.0429 36.0462 33.4275C36.8572 32.1954 37.671 30.3683 37.671 28.0061C37.671 25.644 36.8573 23.8141 36.0467 22.5794C35.6417 21.9625 35.2357 21.4913 34.9278 21.1716C34.7737 21.0115 34.6434 20.8886 34.5492 20.8038C34.502 20.7614 34.4639 20.7284 34.4361 20.705L34.4025 20.677L34.3919 20.6683L34.3882 20.6654L34.3856 20.6633ZM31.9503 24.8349L31.9481 24.8331Z" fill="white"/>
</svg>
