<svg width="57" height="56" viewBox="0 0 57 56" fill="none" xmlns="http://www.w3.org/2000/svg">
<rect x="0.666016" width="56" height="56" rx="28" fill="white" fill-opacity="0.04"/>
<rect x="2.66602" y="2" width="52" height="52" rx="26" stroke="white" stroke-opacity="0.04" stroke-width="4"/>
<path d="M32.2664 23.8008C32.2664 22.1439 30.9233 20.8008 29.2664 20.8008H22.0664C20.4096 20.8008 19.0664 22.1439 19.0664 23.8008V32.2008C19.0664 33.8576 20.4096 35.2008 22.0664 35.2008H29.2664C30.9233 35.2008 32.2664 33.8576 32.2664 32.2008V23.8008ZM33.4664 25.5178V30.4986L36.7834 33.3191C37.3679 33.8161 38.2664 33.4007 38.2664 32.6334V23.4326C38.2664 22.669 37.3754 22.2523 36.7894 22.7418L33.4664 25.5178Z" fill="white"/>
</svg>
