<svg width="28" height="28" viewBox="0 0 28 28" fill="none" xmlns="http://www.w3.org/2000/svg">
<path d="M14 6.125C12.4425 6.125 10.9199 6.58686 9.62489 7.45218C8.32985 8.31749 7.32049 9.5474 6.72445 10.9864C6.12841 12.4253 5.97246 14.0087 6.27632 15.5363C6.58018 17.0639 7.3302 18.4671 8.43154 19.5685C9.53288 20.6698 10.9361 21.4198 12.4637 21.7237C13.9913 22.0275 15.5747 21.8716 17.0136 21.2755C18.4526 20.6795 19.6825 19.6701 20.5478 18.3751C21.4131 17.0801 21.875 15.5575 21.875 14H24.5C24.5 16.0767 23.8842 18.1068 22.7304 19.8335C21.5767 21.5602 19.9368 22.906 18.0182 23.7007C16.0996 24.4955 13.9884 24.7034 11.9516 24.2982C9.91475 23.8931 8.04383 22.8931 6.57538 21.4246C5.10693 19.9562 4.1069 18.0852 3.70176 16.0484C3.29661 14.0116 3.50455 11.9004 4.29927 9.98182C5.09399 8.0632 6.4398 6.42332 8.16652 5.26957C9.89323 4.11581 11.9233 3.5 14 3.5V6.125Z" fill="black"/>
</svg>
