<svg width="16" height="16" viewBox="0 0 16 16" fill="none" xmlns="http://www.w3.org/2000/svg">
<path d="M9.24997 1.12502C9.24997 0.87372 9.09946 0.646862 8.86793 0.549174C8.6364 0.451485 8.36888 0.501967 8.18887 0.677313L4.53048 4.24092H2.375C1.33946 4.24092 0.5 5.08038 0.5 6.11592V9.85215C0.5 10.8877 1.33946 11.7272 2.375 11.7272H4.52893L8.18697 15.3209C8.36657 15.4973 8.63452 15.5488 8.86671 15.4514C9.09889 15.354 9.24997 15.1268 9.24997 14.875V1.12502ZM10.6391 4.48593C10.854 4.2158 11.2471 4.17102 11.5173 4.38591L11.5183 4.38675L11.5195 4.38769L11.5222 4.38985L11.5289 4.39534L11.5476 4.41102C11.5623 4.42356 11.5815 4.44031 11.6044 4.4613C11.6501 4.50327 11.7111 4.56238 11.7822 4.63898C11.924 4.79202 12.1071 5.0162 12.2883 5.31428C12.6527 5.9137 13.0053 6.80548 13.0053 7.99819C13.0053 9.19085 12.6527 10.0836 12.2886 10.6839C12.1075 10.9824 11.9246 11.2071 11.7829 11.3605C11.7119 11.4373 11.651 11.4966 11.6053 11.5386C11.5807 11.5613 11.5555 11.5832 11.53 11.6048L11.5194 11.6134L11.5184 11.6142C11.5184 11.6142 10.9604 11.9172 10.6399 11.5162C10.4255 11.2479 10.4679 10.8572 10.7339 10.641L10.7359 10.6394L10.7349 10.6402L10.737 10.6385L10.7359 10.6394C10.7395 10.6362 10.7473 10.6294 10.7587 10.619C10.7815 10.598 10.8183 10.5625 10.8648 10.5122C10.9578 10.4115 11.0879 10.2531 11.2199 10.0356C11.4818 9.60376 11.7553 8.93261 11.7553 7.99819C11.7553 7.06383 11.4818 6.39402 11.2202 5.96363C11.0884 5.7468 10.9584 5.58902 10.8655 5.48882C10.8191 5.4388 10.7823 5.40347 10.7596 5.38266C10.7483 5.37226 10.7405 5.36553 10.7369 5.36244L10.7381 5.36339C10.4684 5.14841 10.4243 4.7559 10.6391 4.48593ZM12.7663 1.88607C12.4963 1.67107 12.1031 1.71569 11.8881 1.98573C11.6732 2.25563 11.7183 2.64915 11.988 2.86423L12.0018 2.87575C12.0153 2.88718 12.0373 2.90605 12.0664 2.93228C12.1247 2.98476 12.2117 3.06647 12.3178 3.17666C12.5303 3.3974 12.8176 3.73014 13.1056 4.16886C13.6812 5.04553 14.2541 6.33559 14.2541 8.00506C14.2541 9.67441 13.6813 10.9617 13.106 11.8356C12.8181 12.2729 12.531 12.6043 12.3186 12.8241C12.2126 12.9338 12.1257 13.0151 12.0674 13.0673C12.0383 13.0934 12.0164 13.1121 12.0029 13.1235L11.9885 13.1354L11.9874 13.1364C11.7182 13.351 11.6732 13.7431 11.8871 14.0131C12.1014 14.2837 12.4955 14.3285 12.7661 14.1142L12.8073 14.0803C12.8304 14.0608 12.8623 14.0335 12.9016 13.9982C12.9802 13.9278 13.0888 13.8258 13.2173 13.6929C13.4741 13.4273 13.8125 13.0358 14.1501 12.5229C14.826 11.4962 15.5041 9.97355 15.5041 8.00506C15.5041 6.03668 14.826 4.51172 14.1505 3.48283C13.813 2.96878 13.4748 2.57611 13.2182 2.30963C13.0897 2.17621 12.9812 2.07386 12.9026 2.00318C12.8634 1.96783 12.8315 1.94035 12.8084 1.92082L12.7804 1.89747L12.7715 1.89028L12.7685 1.8878L12.7663 1.88607ZM10.7369 5.36244L10.7351 5.36093Z" fill="white" fill-opacity="0.56"/>
</svg>
