<svg width="28" height="28" viewBox="0 0 28 28" fill="none" xmlns="http://www.w3.org/2000/svg">
<path d="M6.99935 4.66602C5.71067 4.66602 4.66602 5.7107 4.66602 6.99935V20.9993C4.66602 22.288 5.71067 23.3327 6.99935 23.3327H9.33268C10.6214 23.3327 11.666 22.288 11.666 20.9993V6.99935C11.666 5.7107 10.6214 4.66602 9.33268 4.66602H6.99935ZM18.666 4.66602C17.3773 4.66602 16.3327 5.7107 16.3327 6.99935V20.9993C16.3327 22.288 17.3773 23.3327 18.666 23.3327H20.9993C22.288 23.3327 23.3327 22.288 23.3327 20.9993V6.99935C23.3327 5.7107 22.288 4.66602 20.9993 4.66602H18.666Z" fill="#121214"/>
</svg>
