<svg width="24" height="24" viewBox="0 0 24 24" fill="none" xmlns="http://www.w3.org/2000/svg">
<path d="M12.0001 3C7.02951 3 3 7.04636 3 12.0377C3 16.5143 6.2447 20.2217 10.499 20.9396V13.9232H8.32795V11.3983H10.499V9.53647C10.499 7.37626 11.8129 6.19907 13.7322 6.19907C14.6515 6.19907 15.4414 6.26786 15.6708 6.29815V8.55614L14.3396 8.55679C13.296 8.55679 13.0948 9.05466 13.0948 9.78551V11.397H15.5849L15.2601 13.9219H13.0948V21C17.5478 20.4558 21 16.6539 21 12.0351C21 7.04636 16.9705 3 12.0001 3Z" fill="white"/>
</svg>
